<?xml version="1.0" encoding="utf-8"?>
<svg width="800px" height="800px" viewBox="0 0 1024 1024" version="1.1" xmlns="http://www.w3.org/2000/svg">
  <!-- Side face (lighter orange) -->
  <path d="M725.719319 260.364622c0-28.813231-17.549235-62.336861-39.159159-74.815533L373.308075 4.689565C351.69109-7.782044 334.148917 5.480517 334.148917 34.293748v705.020226c0 28.813231 17.542173 62.336861 39.159158 74.815533l313.252085 180.852462c21.609924 12.478672 39.159159-0.783889 39.159159-29.597121V260.364622z" fill="#fb8c5a" />
  <!-- Corner details -->
  <path d="M349.021629 1.935359L305.229754 27.231682l58.459787 19.335938 31.998223-28.954473L349.021629 1.935359zM668.68607 1021.930815l43.777751-25.063275-27.817481-15.932022-15.96027 40.995297z" fill="#fb8c5a" />
  <!-- Front face (primary orange) -->
  <path d="M684.64634 284.079041c0-28.813231-17.549235-62.336861-39.159158-74.815532L332.235096 28.403985C310.618111 15.932375 293.075938 29.194936 293.075938 58.008168v705.013163c0 28.820294 17.542173 62.343923 39.159158 74.815533l313.252086 180.859524c21.609924 12.478672 39.159159-0.783889 39.159158-29.604183V284.079041z" fill="#fa5d19" />
  <!-- Screen (white) -->
  <path d="M668.68607 288.521081c0-26.398005-16.073263-57.117994-35.875298-68.55148L345.773078 54.251148c-19.802035-11.433486-35.875298 0.720331-35.875298 27.125398v675.161808c0 26.398005 16.073263 57.117994 35.875298 68.55148L632.810772 990.808287c19.802035 11.433486 35.875298-0.720331 35.875298-27.125397V288.521081z" fill="#FFFFFF" />
  <!-- Side buttons -->
  <path d="M710.140401 358.393167c0-4.427916-2.697709-9.583224-6.016881-11.497044-3.319171-1.920882-6.016881 0.120055-6.016881 4.547971v151.036417c0 4.427916 2.697709 9.583224 6.016881 11.497044 3.319171 1.920882 6.016881-0.120055 6.016881-4.547971V358.393167zM710.140401 546.809102c0-4.427916-2.697709-9.576162-6.016881-11.497044-3.319171-1.91382-6.016881 0.127117-6.016881 4.555033v49.046052c0 4.427916 2.697709 9.576162 6.016881 11.497044 3.319171 1.91382 6.016881-0.120055 6.016881-4.54797v-49.053115z" fill="#fa5d19" />
  <path d="M710.140401 433.907845l-12.033762-6.942012v11.560603l12.033762 6.949074v-11.567665z" fill="#fb8c5a" />
</svg>
